<svg xmlns="http://www.w3.org/2000/svg" xmlns:xlink="http://www.w3.org/1999/xlink" preserveAspectRatio="xMidYMid" width="579" height="416" viewBox="0 0 579 416">
  <defs>
    <style>
      .cls-1 {
        fill: #fff;
        fill-rule: evenodd;
      }
    </style>
  </defs>
  <path d="M555.500,196.000 C542.521,196.000 532.000,185.479 532.000,172.500 C532.000,159.521 542.521,149.000 555.500,149.000 C568.479,149.000 579.000,159.521 579.000,172.500 C579.000,185.479 568.479,196.000 555.500,196.000 ZM464.349,151.501 C429.825,151.501 409.027,128.623 409.443,97.426 C409.443,91.603 410.690,81.620 416.930,80.788 C419.842,83.284 424.833,85.364 431.488,85.364 C452.286,85.364 464.349,67.061 463.101,50.839 C462.270,37.528 450.207,20.890 428.577,20.890 C392.804,21.306 369.510,51.255 369.510,95.347 L369.510,237.189 C369.510,290.848 394.468,312.478 430.657,312.478 L433.568,312.478 C468.925,310.398 495.546,292.512 507.609,251.747 C508.025,250.084 508.857,249.252 509.689,249.252 C511.353,249.252 511.353,250.916 510.937,252.995 C499.706,291.680 464.765,320.797 415.682,320.797 C363.846,320.797 324.124,301.662 298.524,270.395 C270.476,305.533 224.127,321.187 190.401,321.187 C98.890,321.187 63.950,270.440 63.950,233.004 C63.950,201.807 85.995,176.017 121.352,176.017 C152.965,176.017 177.091,200.975 177.091,230.924 C177.091,250.058 157.956,267.529 153.381,262.537 C141.318,250.890 118.856,259.209 118.856,278.343 C118.856,303.717 154.213,314.948 191.233,314.948 C227.838,314.948 254.043,292.902 254.043,266.281 C254.043,191.408 79.340,166.450 79.340,87.002 C79.340,39.167 127.591,5.474 193.729,5.474 C236.989,5.474 257.787,17.121 271.097,17.121 C280.249,17.121 286.072,12.961 286.072,3.394 C286.072,-0.350 292.311,0.066 292.727,3.394 L292.727,82.656 C320.650,44.307 368.080,18.810 427.329,18.810 C474.748,18.810 526.327,46.679 521.752,99.506 C518.840,135.279 489.307,151.501 464.349,151.501 ZM285.656,84.090 C285.656,27.936 238.237,12.129 201.216,12.129 C184.162,12.129 162.532,15.457 162.532,31.263 C162.532,52.150 229.066,72.180 276.475,111.429 C279.106,105.185 282.175,99.145 285.656,93.343 L285.656,84.090 ZM313.000,165.000 C307.146,165.000 301.671,166.625 297.000,169.445 C292.329,166.625 286.855,165.000 281.000,165.000 C263.879,165.000 250.000,178.879 250.000,196.000 C250.000,213.121 263.879,227.000 281.000,227.000 C286.855,227.000 292.329,225.375 297.000,222.555 C301.671,225.375 307.146,227.000 313.000,227.000 C330.121,227.000 344.000,213.121 344.000,196.000 C344.000,178.879 330.121,165.000 313.000,165.000 ZM313.000,216.150 C310.413,216.150 307.949,215.645 305.677,214.757 C309.642,209.549 312.000,203.051 312.000,196.000 C312.000,188.949 309.642,182.451 305.677,177.243 C307.949,176.355 310.413,175.850 313.000,175.850 C324.129,175.850 333.150,184.871 333.150,196.000 C333.150,207.129 324.129,216.150 313.000,216.150 ZM292.850,196.000 C292.850,191.402 294.408,187.177 297.000,183.786 C299.593,187.177 301.150,191.402 301.150,196.000 C301.150,200.598 299.593,204.823 297.000,208.214 C294.408,204.823 292.850,200.598 292.850,196.000 ZM288.323,214.757 C286.051,215.645 283.587,216.150 281.000,216.150 C269.872,216.150 260.850,207.129 260.850,196.000 C260.850,184.871 269.872,175.850 281.000,175.850 C283.587,175.850 286.051,176.355 288.323,177.243 C284.358,182.451 282.000,188.949 282.000,196.000 C282.000,203.051 284.358,209.549 288.323,214.757 ZM23.500,196.000 C10.521,196.000 -0.000,185.479 -0.000,172.500 C-0.000,159.521 10.521,149.000 23.500,149.000 C36.479,149.000 47.000,159.521 47.000,172.500 C47.000,185.479 36.479,196.000 23.500,196.000 ZM132.232,384.369 C132.868,383.718 133.620,383.199 134.489,382.811 C135.356,382.424 136.287,382.230 137.280,382.230 C138.520,382.230 139.582,382.455 140.466,382.904 C141.350,383.354 142.079,383.967 142.653,384.742 C143.226,385.517 143.645,386.401 143.909,387.393 C144.172,388.386 144.304,389.440 144.304,390.557 C144.304,391.363 144.288,392.038 144.258,392.580 C144.226,393.123 144.165,393.643 144.072,394.139 C143.979,394.635 143.823,395.132 143.606,395.627 C143.389,396.124 143.095,396.728 142.723,397.442 L135.745,410.886 L144.304,410.886 L144.304,415.631 L130.162,415.631 L130.162,411.165 L138.722,395.022 C139.156,394.216 139.404,393.511 139.466,392.906 C139.528,392.301 139.559,391.549 139.559,390.650 C139.559,390.247 139.543,389.820 139.513,389.370 C139.481,388.921 139.396,388.526 139.257,388.184 C139.117,387.843 138.892,387.556 138.582,387.323 C138.272,387.091 137.822,386.975 137.233,386.975 C136.519,386.975 135.954,387.177 135.535,387.579 C135.117,387.983 134.907,388.572 134.907,389.347 L134.907,392.045 L130.162,392.045 L130.162,389.440 C130.162,388.448 130.348,387.518 130.720,386.649 C131.093,385.781 131.596,385.021 132.232,384.369 ZM176.496,401.698 C176.557,401.218 176.650,400.784 176.775,400.396 C176.898,400.008 177.038,399.597 177.193,399.163 L183.427,382.509 L188.730,382.509 L183.334,396.418 L183.427,396.511 C183.582,396.388 183.823,396.287 184.148,396.209 C184.474,396.132 184.900,396.092 185.427,396.092 C186.265,396.092 187.040,396.295 187.754,396.697 C188.467,397.101 189.025,397.612 189.428,398.232 C189.645,398.574 189.816,398.915 189.940,399.256 C190.064,399.597 190.165,400.047 190.242,400.605 C190.319,401.163 190.374,401.869 190.405,402.722 C190.436,403.575 190.452,404.652 190.452,405.955 C190.452,407.041 190.436,407.932 190.405,408.630 C190.374,409.327 190.319,409.917 190.242,410.397 C190.165,410.879 190.056,411.289 189.917,411.630 C189.777,411.972 189.598,412.328 189.382,412.700 C188.761,413.724 187.932,414.514 186.893,415.073 C185.853,415.631 184.683,415.910 183.381,415.910 C182.078,415.910 180.915,415.624 179.892,415.049 C178.868,414.476 178.046,413.693 177.426,412.700 C177.177,412.328 176.984,411.972 176.845,411.630 C176.705,411.289 176.596,410.879 176.519,410.397 C176.441,409.917 176.387,409.327 176.356,408.630 C176.325,407.932 176.310,407.041 176.310,405.955 C176.310,404.931 176.325,404.087 176.356,403.419 C176.387,402.753 176.433,402.179 176.496,401.698 ZM181.055,408.792 C181.055,409.506 181.287,410.080 181.752,410.514 C182.218,410.948 182.760,411.165 183.381,411.165 C184.001,411.165 184.544,410.948 185.009,410.514 C185.474,410.080 185.707,409.506 185.707,408.792 L185.707,402.652 C185.707,401.939 185.474,401.365 185.009,400.931 C184.544,400.497 184.001,400.279 183.381,400.279 C182.760,400.279 182.218,400.497 181.752,400.931 C181.287,401.365 181.055,401.939 181.055,402.652 L181.055,408.792 ZM227.574,415.631 L222.829,415.631 L222.829,410.886 L227.574,410.886 L227.574,415.631 ZM262.092,384.137 C262.743,383.517 263.494,383.044 264.348,382.718 C265.200,382.392 266.092,382.230 267.023,382.230 C267.953,382.230 268.844,382.392 269.698,382.718 C270.550,383.044 271.303,383.517 271.954,384.137 C272.605,384.758 273.124,385.502 273.512,386.370 C273.900,387.238 274.094,388.231 274.094,389.347 L274.094,408.792 C274.094,409.909 273.900,410.902 273.512,411.770 C273.124,412.638 272.605,413.383 271.954,414.003 C271.303,414.623 270.550,415.096 269.698,415.422 C268.844,415.747 267.953,415.910 267.023,415.910 C266.092,415.910 265.200,415.747 264.348,415.422 C263.494,415.096 262.743,414.623 262.092,414.003 C261.440,413.383 260.921,412.638 260.533,411.770 C260.145,410.902 259.952,409.909 259.952,408.792 L259.952,389.347 C259.952,388.231 260.145,387.238 260.533,386.370 C260.921,385.502 261.440,384.758 262.092,384.137 ZM264.697,408.792 C264.697,409.475 264.913,410.041 265.348,410.490 C265.782,410.940 266.340,411.165 267.023,411.165 C267.705,411.165 268.263,410.940 268.697,410.490 C269.131,410.041 269.349,409.475 269.349,408.792 L269.349,389.347 C269.349,388.665 269.131,388.099 268.697,387.649 C268.263,387.200 267.705,386.975 267.023,386.975 C266.340,386.975 265.782,387.200 265.348,387.649 C264.913,388.099 264.697,388.665 264.697,389.347 L264.697,408.792 ZM306.425,395.488 C306.269,394.961 306.176,394.356 306.146,393.673 C306.114,392.992 306.099,392.154 306.099,391.161 C306.099,390.262 306.130,389.495 306.192,388.859 C306.254,388.223 306.355,387.672 306.495,387.207 C306.634,386.742 306.812,386.323 307.030,385.951 C307.246,385.579 307.510,385.192 307.820,384.788 C308.440,383.982 309.216,383.354 310.146,382.904 C311.077,382.455 312.084,382.230 313.170,382.230 C314.255,382.230 315.264,382.455 316.194,382.904 C317.124,383.354 317.899,383.982 318.520,384.788 C318.830,385.192 319.094,385.579 319.311,385.951 C319.528,386.323 319.706,386.742 319.846,387.207 C319.985,387.672 320.086,388.223 320.148,388.859 C320.210,389.495 320.241,390.262 320.241,391.161 C320.241,392.154 320.225,392.992 320.195,393.673 C320.164,394.356 320.070,394.961 319.916,395.488 C319.760,396.015 319.520,396.488 319.195,396.907 C318.869,397.325 318.427,397.767 317.869,398.232 C318.427,398.667 318.869,399.101 319.195,399.535 C319.520,399.970 319.760,400.481 319.916,401.070 C320.070,401.660 320.164,402.381 320.195,403.233 C320.225,404.087 320.241,405.133 320.241,406.373 C320.241,407.397 320.218,408.242 320.172,408.909 C320.125,409.576 320.055,410.157 319.962,410.653 C319.869,411.150 319.737,411.568 319.567,411.909 C319.396,412.251 319.187,412.607 318.939,412.979 C318.411,413.786 317.667,414.476 316.706,415.049 C315.744,415.624 314.566,415.910 313.170,415.910 C311.775,415.910 310.596,415.624 309.635,415.049 C308.673,414.476 307.929,413.786 307.402,412.979 C307.153,412.607 306.944,412.251 306.774,411.909 C306.603,411.568 306.471,411.150 306.378,410.653 C306.285,410.157 306.216,409.576 306.169,408.909 C306.122,408.242 306.099,407.397 306.099,406.373 C306.099,405.133 306.114,404.087 306.146,403.233 C306.176,402.381 306.269,401.660 306.425,401.070 C306.580,400.481 306.820,399.970 307.146,399.535 C307.472,399.101 307.913,398.667 308.472,398.232 C307.913,397.767 307.472,397.325 307.146,396.907 C306.820,396.488 306.580,396.015 306.425,395.488 ZM310.844,408.839 C310.844,409.490 311.077,410.041 311.542,410.490 C312.007,410.940 312.550,411.165 313.170,411.165 C313.790,411.165 314.333,410.940 314.798,410.490 C315.264,410.041 315.496,409.490 315.496,408.839 L315.496,402.326 C315.496,401.675 315.264,401.125 314.798,400.675 C314.333,400.225 313.790,400.000 313.170,400.000 C312.550,400.000 312.007,400.225 311.542,400.675 C311.077,401.125 310.844,401.675 310.844,402.326 L310.844,408.839 ZM310.844,394.139 C310.844,394.790 311.077,395.341 311.542,395.790 C312.007,396.240 312.550,396.465 313.170,396.465 C313.790,396.465 314.333,396.240 314.798,395.790 C315.264,395.341 315.496,394.790 315.496,394.139 L315.496,389.301 C315.496,388.649 315.264,388.099 314.798,387.649 C314.333,387.200 313.790,386.975 313.170,386.975 C312.550,386.975 312.007,387.200 311.542,387.649 C311.077,388.099 310.844,388.649 310.844,389.301 L310.844,394.139 ZM357.364,415.631 L352.619,415.631 L352.619,410.886 L357.364,410.886 L357.364,415.631 ZM400.115,382.509 L400.115,415.631 L395.370,415.631 L395.370,387.533 L390.625,391.022 L390.625,385.998 L395.370,382.509 L400.115,382.509 ZM450.031,387.254 L441.983,415.631 L436.959,415.631 L445.286,386.975 L440.076,386.975 L440.076,390.789 L435.889,390.789 L435.889,382.509 L450.031,382.509 L450.031,387.254 Z" class="cls-1"/>
</svg>
