<?xml version="1.0" encoding="UTF-8"?>
<svg width="120px" height="55px" viewBox="0 0 120 55" version="1.1" xmlns="http://www.w3.org/2000/svg" xmlns:xlink="http://www.w3.org/1999/xlink">
    <!-- Generator: Sketch 41.1 (35376) - http://www.bohemiancoding.com/sketch -->
    <title>CM</title>
    <desc>Created with Sketch.</desc>
    <defs></defs>
    <g id="Symbols" stroke="none" stroke-width="1" fill="none" fill-rule="evenodd">
        <g id="Logo" fill="#FFFFFF">
            <path d="M0,27.5 C0,23.3333125 0.735286765,19.5588404 2.20588235,16.1764706 C3.67647794,12.7941007 5.68626176,9.90197279 8.23529412,7.5 C10.7843265,5.09802721 13.7867474,3.24755551 17.2426471,1.94852941 C20.6985467,0.649503309 24.3872353,0 28.3088235,0 C32.3284515,0 36.1274331,0.649503309 39.7058824,1.94852941 C43.2843316,3.24755551 46.2744978,4.99998897 48.6764706,7.20588235 L37.9411765,20.1470588 C36.9607794,18.8725426 35.7353015,17.9044151 34.2647059,17.2426471 C32.7941103,16.580879 31.1519699,16.25 29.3382353,16.25 C27.8676397,16.25 26.4951044,16.5073504 25.2205882,17.0220588 C23.9460721,17.5367673 22.8308871,18.2843088 21.875,19.2647059 C20.9191129,20.2451029 20.1715713,21.4338165 19.6323529,22.8308824 C19.0931346,24.2279482 18.8235294,25.7843051 18.8235294,27.5 C18.8235294,29.2156949 19.1053893,30.7475423 19.6691176,32.0955882 C20.232846,33.4436342 20.9926423,34.6078382 21.9485294,35.5882353 C22.9044165,36.5686324 24.0196015,37.3161739 25.2941176,37.8308824 C26.5686338,38.3455908 27.9166596,38.6029412 29.3382353,38.6029412 C31.3480493,38.6029412 33.0759732,38.1862787 34.5220588,37.3529412 C35.9681445,36.5196037 37.107839,35.5392213 37.9411765,34.4117647 L48.6764706,47.2794118 C46.3235176,49.6323647 43.4313897,51.507346 40,52.9044118 C36.5686103,54.3014776 32.6715904,55 28.3088235,55 C24.3872353,55 20.6985467,54.3382419 17.2426471,53.0147059 C13.7867474,51.6911699 10.7843265,49.8161886 8.23529412,47.3897059 C5.68626176,44.9632232 3.67647794,42.0710952 2.20588235,38.7132353 C0.735286765,35.3553754 0,31.6176676 0,27.5 Z M70.1930147,24.1176471 L71.0018382,53.5294118 L54.6783088,53.5294118 L54.6783088,1.47058824 L77.5459559,1.47058824 L86.9577206,29.4852941 L87.3253676,29.4852941 L95.4871324,1.47058824 L119.090074,1.47058824 L119.090074,53.5294118 L102.104779,53.5294118 L102.619485,24.2647059 L102.178309,24.1911765 L92.4724265,53.5294118 L80.1194853,53.5294118 L70.5606618,24.1176471 L70.1930147,24.1176471 Z" id="CM"></path>
        </g>
    </g>
</svg>